<mxfile host="app.diagrams.net" modified="2020-07-24T03:29:44.027Z" agent="5.0 (Windows NT 10.0; Win64; x64) AppleWebKit/537.36 (KHTML, like Gecko) Chrome/84.0.4147.89 Safari/537.36" etag="QJxj045mjuxprnH7IVKY" version="13.4.4" type="github">
  <diagram id="gxkvjSbEqc1R_QwJBHWN" name="Page-1">
    <mxGraphModel dx="1635" dy="835" grid="1" gridSize="10" guides="1" tooltips="1" connect="1" arrows="1" fold="1" page="1" pageScale="1" pageWidth="2000" pageHeight="2000" math="0" shadow="0">
      <root>
        <mxCell id="0" />
        <mxCell id="1" parent="0" />
        <mxCell id="vKwD8EdCoFHyunoRVP9S-19" value="Admin" style="rounded=0;whiteSpace=wrap;html=1;" vertex="1" parent="1">
          <mxGeometry x="217.5" y="210" width="100" height="30" as="geometry" />
        </mxCell>
        <mxCell id="vKwD8EdCoFHyunoRVP9S-20" value="" style="endArrow=none;html=1;exitX=0.5;exitY=0;exitDx=0;exitDy=0;" edge="1" source="vKwD8EdCoFHyunoRVP9S-19" target="vKwD8EdCoFHyunoRVP9S-21" parent="1">
          <mxGeometry width="50" height="50" relative="1" as="geometry">
            <mxPoint x="260" y="210" as="sourcePoint" />
            <mxPoint x="295" y="180" as="targetPoint" />
          </mxGeometry>
        </mxCell>
        <mxCell id="vKwD8EdCoFHyunoRVP9S-21" value="Aid" style="ellipse;whiteSpace=wrap;html=1;" vertex="1" parent="1">
          <mxGeometry x="230" y="140" width="70" height="40" as="geometry" />
        </mxCell>
        <mxCell id="vKwD8EdCoFHyunoRVP9S-22" value="" style="endArrow=none;html=1;entryX=0;entryY=0.5;entryDx=0;entryDy=0;" edge="1" target="vKwD8EdCoFHyunoRVP9S-19" parent="1">
          <mxGeometry width="50" height="50" relative="1" as="geometry">
            <mxPoint x="180" y="225" as="sourcePoint" />
            <mxPoint x="210" y="220" as="targetPoint" />
          </mxGeometry>
        </mxCell>
        <mxCell id="vKwD8EdCoFHyunoRVP9S-23" value="Name" style="ellipse;whiteSpace=wrap;html=1;" vertex="1" parent="1">
          <mxGeometry x="130" y="205" width="60" height="40" as="geometry" />
        </mxCell>
        <mxCell id="vKwD8EdCoFHyunoRVP9S-24" value="Cnic" style="ellipse;whiteSpace=wrap;html=1;" vertex="1" parent="1">
          <mxGeometry x="350" y="205" width="60" height="40" as="geometry" />
        </mxCell>
        <mxCell id="vKwD8EdCoFHyunoRVP9S-25" value="" style="endArrow=none;html=1;" edge="1" source="vKwD8EdCoFHyunoRVP9S-19" parent="1">
          <mxGeometry width="50" height="50" relative="1" as="geometry">
            <mxPoint x="317.5" y="275" as="sourcePoint" />
            <mxPoint x="350" y="225" as="targetPoint" />
          </mxGeometry>
        </mxCell>
        <mxCell id="vKwD8EdCoFHyunoRVP9S-26" value="Email" style="ellipse;whiteSpace=wrap;html=1;" vertex="1" parent="1">
          <mxGeometry x="237.5" y="280" width="60" height="40" as="geometry" />
        </mxCell>
        <mxCell id="vKwD8EdCoFHyunoRVP9S-27" value="" style="endArrow=none;html=1;exitX=0.5;exitY=1;exitDx=0;exitDy=0;entryX=0.5;entryY=0;entryDx=0;entryDy=0;" edge="1" source="vKwD8EdCoFHyunoRVP9S-19" target="vKwD8EdCoFHyunoRVP9S-26" parent="1">
          <mxGeometry width="50" height="50" relative="1" as="geometry">
            <mxPoint x="270" y="250" as="sourcePoint" />
            <mxPoint x="270" y="270" as="targetPoint" />
          </mxGeometry>
        </mxCell>
        <mxCell id="vKwD8EdCoFHyunoRVP9S-28" value="Student" style="rounded=0;whiteSpace=wrap;html=1;" vertex="1" parent="1">
          <mxGeometry x="217.5" y="210" width="100" height="30" as="geometry" />
        </mxCell>
        <mxCell id="vKwD8EdCoFHyunoRVP9S-29" value="" style="endArrow=none;html=1;exitX=0.5;exitY=0;exitDx=0;exitDy=0;" edge="1" source="vKwD8EdCoFHyunoRVP9S-28" target="vKwD8EdCoFHyunoRVP9S-30" parent="1">
          <mxGeometry width="50" height="50" relative="1" as="geometry">
            <mxPoint x="260" y="210" as="sourcePoint" />
            <mxPoint x="295" y="180" as="targetPoint" />
          </mxGeometry>
        </mxCell>
        <mxCell id="vKwD8EdCoFHyunoRVP9S-30" value="Sid" style="ellipse;whiteSpace=wrap;html=1;" vertex="1" parent="1">
          <mxGeometry x="230" y="140" width="70" height="40" as="geometry" />
        </mxCell>
        <mxCell id="vKwD8EdCoFHyunoRVP9S-31" value="" style="endArrow=none;html=1;entryX=0;entryY=0.5;entryDx=0;entryDy=0;" edge="1" target="vKwD8EdCoFHyunoRVP9S-28" parent="1">
          <mxGeometry width="50" height="50" relative="1" as="geometry">
            <mxPoint x="180" y="225" as="sourcePoint" />
            <mxPoint x="210" y="220" as="targetPoint" />
          </mxGeometry>
        </mxCell>
        <mxCell id="vKwD8EdCoFHyunoRVP9S-32" value="fname" style="ellipse;whiteSpace=wrap;html=1;" vertex="1" parent="1">
          <mxGeometry x="130" y="205" width="60" height="40" as="geometry" />
        </mxCell>
        <mxCell id="vKwD8EdCoFHyunoRVP9S-33" value="lname" style="ellipse;whiteSpace=wrap;html=1;" vertex="1" parent="1">
          <mxGeometry x="350" y="205" width="60" height="40" as="geometry" />
        </mxCell>
        <mxCell id="vKwD8EdCoFHyunoRVP9S-34" value="" style="endArrow=none;html=1;" edge="1" source="vKwD8EdCoFHyunoRVP9S-28" parent="1">
          <mxGeometry width="50" height="50" relative="1" as="geometry">
            <mxPoint x="317.5" y="275" as="sourcePoint" />
            <mxPoint x="350" y="225" as="targetPoint" />
          </mxGeometry>
        </mxCell>
        <mxCell id="vKwD8EdCoFHyunoRVP9S-35" value="user" style="ellipse;whiteSpace=wrap;html=1;" vertex="1" parent="1">
          <mxGeometry x="237.5" y="280" width="60" height="40" as="geometry" />
        </mxCell>
        <mxCell id="vKwD8EdCoFHyunoRVP9S-36" value="" style="endArrow=none;html=1;exitX=0.5;exitY=1;exitDx=0;exitDy=0;entryX=0.5;entryY=0;entryDx=0;entryDy=0;" edge="1" source="vKwD8EdCoFHyunoRVP9S-28" target="vKwD8EdCoFHyunoRVP9S-35" parent="1">
          <mxGeometry width="50" height="50" relative="1" as="geometry">
            <mxPoint x="270" y="250" as="sourcePoint" />
            <mxPoint x="270" y="270" as="targetPoint" />
          </mxGeometry>
        </mxCell>
        <mxCell id="vKwD8EdCoFHyunoRVP9S-37" value="Cnic" style="ellipse;whiteSpace=wrap;html=1;" vertex="1" parent="1">
          <mxGeometry x="350" y="150" width="60" height="40" as="geometry" />
        </mxCell>
        <mxCell id="vKwD8EdCoFHyunoRVP9S-39" value="password" style="ellipse;whiteSpace=wrap;html=1;" vertex="1" parent="1">
          <mxGeometry x="350" y="150" width="60" height="40" as="geometry" />
        </mxCell>
        <mxCell id="vKwD8EdCoFHyunoRVP9S-40" value="" style="endArrow=none;html=1;exitX=1;exitY=0;exitDx=0;exitDy=0;" edge="1" parent="1" source="vKwD8EdCoFHyunoRVP9S-28">
          <mxGeometry width="50" height="50" relative="1" as="geometry">
            <mxPoint x="317.5" y="170" as="sourcePoint" />
            <mxPoint x="350" y="170" as="targetPoint" />
          </mxGeometry>
        </mxCell>
        <mxCell id="vKwD8EdCoFHyunoRVP9S-41" value="Admin" style="rounded=0;whiteSpace=wrap;html=1;" vertex="1" parent="1">
          <mxGeometry x="737.5" y="290" width="100" height="30" as="geometry" />
        </mxCell>
        <mxCell id="vKwD8EdCoFHyunoRVP9S-42" value="" style="endArrow=none;html=1;exitX=0.5;exitY=0;exitDx=0;exitDy=0;" edge="1" source="vKwD8EdCoFHyunoRVP9S-41" target="vKwD8EdCoFHyunoRVP9S-43" parent="1">
          <mxGeometry width="50" height="50" relative="1" as="geometry">
            <mxPoint x="780" y="290" as="sourcePoint" />
            <mxPoint x="815" y="260" as="targetPoint" />
          </mxGeometry>
        </mxCell>
        <mxCell id="vKwD8EdCoFHyunoRVP9S-43" value="Aid" style="ellipse;whiteSpace=wrap;html=1;" vertex="1" parent="1">
          <mxGeometry x="750" y="220" width="70" height="40" as="geometry" />
        </mxCell>
        <mxCell id="vKwD8EdCoFHyunoRVP9S-44" value="" style="endArrow=none;html=1;entryX=0;entryY=0.5;entryDx=0;entryDy=0;" edge="1" target="vKwD8EdCoFHyunoRVP9S-41" parent="1">
          <mxGeometry width="50" height="50" relative="1" as="geometry">
            <mxPoint x="700" y="305" as="sourcePoint" />
            <mxPoint x="730" y="300" as="targetPoint" />
          </mxGeometry>
        </mxCell>
        <mxCell id="vKwD8EdCoFHyunoRVP9S-45" value="Name" style="ellipse;whiteSpace=wrap;html=1;" vertex="1" parent="1">
          <mxGeometry x="650" y="285" width="60" height="40" as="geometry" />
        </mxCell>
        <mxCell id="vKwD8EdCoFHyunoRVP9S-46" value="Cnic" style="ellipse;whiteSpace=wrap;html=1;" vertex="1" parent="1">
          <mxGeometry x="870" y="285" width="60" height="40" as="geometry" />
        </mxCell>
        <mxCell id="vKwD8EdCoFHyunoRVP9S-47" value="" style="endArrow=none;html=1;" edge="1" source="vKwD8EdCoFHyunoRVP9S-41" parent="1">
          <mxGeometry width="50" height="50" relative="1" as="geometry">
            <mxPoint x="837.5" y="355" as="sourcePoint" />
            <mxPoint x="870" y="305" as="targetPoint" />
          </mxGeometry>
        </mxCell>
        <mxCell id="vKwD8EdCoFHyunoRVP9S-50" value="Course" style="rounded=0;whiteSpace=wrap;html=1;" vertex="1" parent="1">
          <mxGeometry x="737.5" y="290" width="100" height="30" as="geometry" />
        </mxCell>
        <mxCell id="vKwD8EdCoFHyunoRVP9S-51" value="" style="endArrow=none;html=1;exitX=0.5;exitY=0;exitDx=0;exitDy=0;" edge="1" source="vKwD8EdCoFHyunoRVP9S-50" target="vKwD8EdCoFHyunoRVP9S-52" parent="1">
          <mxGeometry width="50" height="50" relative="1" as="geometry">
            <mxPoint x="780" y="290" as="sourcePoint" />
            <mxPoint x="815" y="260" as="targetPoint" />
          </mxGeometry>
        </mxCell>
        <mxCell id="vKwD8EdCoFHyunoRVP9S-52" value="Cid" style="ellipse;whiteSpace=wrap;html=1;" vertex="1" parent="1">
          <mxGeometry x="750" y="220" width="70" height="40" as="geometry" />
        </mxCell>
        <mxCell id="vKwD8EdCoFHyunoRVP9S-53" value="" style="endArrow=none;html=1;entryX=0;entryY=0.5;entryDx=0;entryDy=0;" edge="1" target="vKwD8EdCoFHyunoRVP9S-50" parent="1">
          <mxGeometry width="50" height="50" relative="1" as="geometry">
            <mxPoint x="700" y="305" as="sourcePoint" />
            <mxPoint x="730" y="300" as="targetPoint" />
          </mxGeometry>
        </mxCell>
        <mxCell id="vKwD8EdCoFHyunoRVP9S-54" value="name" style="ellipse;whiteSpace=wrap;html=1;" vertex="1" parent="1">
          <mxGeometry x="650" y="285" width="60" height="40" as="geometry" />
        </mxCell>
        <mxCell id="vKwD8EdCoFHyunoRVP9S-55" value="Desc" style="ellipse;whiteSpace=wrap;html=1;" vertex="1" parent="1">
          <mxGeometry x="870" y="285" width="60" height="40" as="geometry" />
        </mxCell>
        <mxCell id="vKwD8EdCoFHyunoRVP9S-56" value="" style="endArrow=none;html=1;" edge="1" source="vKwD8EdCoFHyunoRVP9S-50" parent="1">
          <mxGeometry width="50" height="50" relative="1" as="geometry">
            <mxPoint x="837.5" y="355" as="sourcePoint" />
            <mxPoint x="870" y="305" as="targetPoint" />
          </mxGeometry>
        </mxCell>
        <mxCell id="vKwD8EdCoFHyunoRVP9S-62" value="Admin" style="rounded=0;whiteSpace=wrap;html=1;" vertex="1" parent="1">
          <mxGeometry x="1317.5" y="230" width="100" height="30" as="geometry" />
        </mxCell>
        <mxCell id="vKwD8EdCoFHyunoRVP9S-63" value="" style="endArrow=none;html=1;exitX=0.5;exitY=0;exitDx=0;exitDy=0;" edge="1" source="vKwD8EdCoFHyunoRVP9S-62" target="vKwD8EdCoFHyunoRVP9S-64" parent="1">
          <mxGeometry width="50" height="50" relative="1" as="geometry">
            <mxPoint x="1360" y="230" as="sourcePoint" />
            <mxPoint x="1395" y="200" as="targetPoint" />
          </mxGeometry>
        </mxCell>
        <mxCell id="vKwD8EdCoFHyunoRVP9S-64" value="Aid" style="ellipse;whiteSpace=wrap;html=1;" vertex="1" parent="1">
          <mxGeometry x="1330" y="160" width="70" height="40" as="geometry" />
        </mxCell>
        <mxCell id="vKwD8EdCoFHyunoRVP9S-65" value="" style="endArrow=none;html=1;entryX=0;entryY=0.5;entryDx=0;entryDy=0;" edge="1" target="vKwD8EdCoFHyunoRVP9S-62" parent="1">
          <mxGeometry width="50" height="50" relative="1" as="geometry">
            <mxPoint x="1280" y="245" as="sourcePoint" />
            <mxPoint x="1310" y="240" as="targetPoint" />
          </mxGeometry>
        </mxCell>
        <mxCell id="vKwD8EdCoFHyunoRVP9S-66" value="Name" style="ellipse;whiteSpace=wrap;html=1;" vertex="1" parent="1">
          <mxGeometry x="1230" y="225" width="60" height="40" as="geometry" />
        </mxCell>
        <mxCell id="vKwD8EdCoFHyunoRVP9S-69" value="Level" style="rounded=0;whiteSpace=wrap;html=1;" vertex="1" parent="1">
          <mxGeometry x="1317.5" y="230" width="100" height="30" as="geometry" />
        </mxCell>
        <mxCell id="vKwD8EdCoFHyunoRVP9S-70" value="" style="endArrow=none;html=1;exitX=0.5;exitY=0;exitDx=0;exitDy=0;" edge="1" source="vKwD8EdCoFHyunoRVP9S-69" target="vKwD8EdCoFHyunoRVP9S-71" parent="1">
          <mxGeometry width="50" height="50" relative="1" as="geometry">
            <mxPoint x="1360" y="230" as="sourcePoint" />
            <mxPoint x="1395" y="200" as="targetPoint" />
          </mxGeometry>
        </mxCell>
        <mxCell id="vKwD8EdCoFHyunoRVP9S-71" value="LId" style="ellipse;whiteSpace=wrap;html=1;" vertex="1" parent="1">
          <mxGeometry x="1330" y="160" width="70" height="40" as="geometry" />
        </mxCell>
        <mxCell id="vKwD8EdCoFHyunoRVP9S-72" value="" style="endArrow=none;html=1;entryX=0;entryY=0.5;entryDx=0;entryDy=0;" edge="1" target="vKwD8EdCoFHyunoRVP9S-69" parent="1">
          <mxGeometry width="50" height="50" relative="1" as="geometry">
            <mxPoint x="1280" y="245" as="sourcePoint" />
            <mxPoint x="1310" y="240" as="targetPoint" />
          </mxGeometry>
        </mxCell>
        <mxCell id="vKwD8EdCoFHyunoRVP9S-73" value="Year_Level" style="ellipse;whiteSpace=wrap;html=1;" vertex="1" parent="1">
          <mxGeometry x="1220" y="225" width="70" height="40" as="geometry" />
        </mxCell>
        <mxCell id="vKwD8EdCoFHyunoRVP9S-76" value="Admin" style="rounded=0;whiteSpace=wrap;html=1;" vertex="1" parent="1">
          <mxGeometry x="387.5" y="550" width="100" height="30" as="geometry" />
        </mxCell>
        <mxCell id="vKwD8EdCoFHyunoRVP9S-77" value="" style="endArrow=none;html=1;exitX=0.5;exitY=0;exitDx=0;exitDy=0;" edge="1" source="vKwD8EdCoFHyunoRVP9S-76" target="vKwD8EdCoFHyunoRVP9S-78" parent="1">
          <mxGeometry width="50" height="50" relative="1" as="geometry">
            <mxPoint x="430" y="550" as="sourcePoint" />
            <mxPoint x="465" y="520" as="targetPoint" />
          </mxGeometry>
        </mxCell>
        <mxCell id="vKwD8EdCoFHyunoRVP9S-78" value="Aid" style="ellipse;whiteSpace=wrap;html=1;" vertex="1" parent="1">
          <mxGeometry x="400" y="480" width="70" height="40" as="geometry" />
        </mxCell>
        <mxCell id="vKwD8EdCoFHyunoRVP9S-79" value="" style="endArrow=none;html=1;entryX=0;entryY=0.5;entryDx=0;entryDy=0;" edge="1" target="vKwD8EdCoFHyunoRVP9S-76" parent="1">
          <mxGeometry width="50" height="50" relative="1" as="geometry">
            <mxPoint x="350" y="565" as="sourcePoint" />
            <mxPoint x="380" y="560" as="targetPoint" />
          </mxGeometry>
        </mxCell>
        <mxCell id="vKwD8EdCoFHyunoRVP9S-80" value="Name" style="ellipse;whiteSpace=wrap;html=1;" vertex="1" parent="1">
          <mxGeometry x="300" y="545" width="60" height="40" as="geometry" />
        </mxCell>
        <mxCell id="vKwD8EdCoFHyunoRVP9S-81" value="Cnic" style="ellipse;whiteSpace=wrap;html=1;" vertex="1" parent="1">
          <mxGeometry x="520" y="545" width="60" height="40" as="geometry" />
        </mxCell>
        <mxCell id="vKwD8EdCoFHyunoRVP9S-82" value="" style="endArrow=none;html=1;" edge="1" source="vKwD8EdCoFHyunoRVP9S-76" parent="1">
          <mxGeometry width="50" height="50" relative="1" as="geometry">
            <mxPoint x="487.5" y="615" as="sourcePoint" />
            <mxPoint x="520" y="565" as="targetPoint" />
          </mxGeometry>
        </mxCell>
        <mxCell id="vKwD8EdCoFHyunoRVP9S-83" value="Email" style="ellipse;whiteSpace=wrap;html=1;" vertex="1" parent="1">
          <mxGeometry x="407.5" y="620" width="60" height="40" as="geometry" />
        </mxCell>
        <mxCell id="vKwD8EdCoFHyunoRVP9S-84" value="" style="endArrow=none;html=1;exitX=0.5;exitY=1;exitDx=0;exitDy=0;entryX=0.5;entryY=0;entryDx=0;entryDy=0;" edge="1" source="vKwD8EdCoFHyunoRVP9S-76" target="vKwD8EdCoFHyunoRVP9S-83" parent="1">
          <mxGeometry width="50" height="50" relative="1" as="geometry">
            <mxPoint x="440" y="590" as="sourcePoint" />
            <mxPoint x="440" y="610" as="targetPoint" />
          </mxGeometry>
        </mxCell>
        <mxCell id="vKwD8EdCoFHyunoRVP9S-85" value="Schedule" style="rounded=0;whiteSpace=wrap;html=1;" vertex="1" parent="1">
          <mxGeometry x="387.5" y="550" width="100" height="30" as="geometry" />
        </mxCell>
        <mxCell id="vKwD8EdCoFHyunoRVP9S-86" value="" style="endArrow=none;html=1;exitX=0.5;exitY=0;exitDx=0;exitDy=0;" edge="1" source="vKwD8EdCoFHyunoRVP9S-85" target="vKwD8EdCoFHyunoRVP9S-87" parent="1">
          <mxGeometry width="50" height="50" relative="1" as="geometry">
            <mxPoint x="430" y="550" as="sourcePoint" />
            <mxPoint x="465" y="520" as="targetPoint" />
          </mxGeometry>
        </mxCell>
        <mxCell id="vKwD8EdCoFHyunoRVP9S-87" value="shed_id" style="ellipse;whiteSpace=wrap;html=1;" vertex="1" parent="1">
          <mxGeometry x="400" y="480" width="70" height="40" as="geometry" />
        </mxCell>
        <mxCell id="vKwD8EdCoFHyunoRVP9S-88" value="" style="endArrow=none;html=1;entryX=0;entryY=0.5;entryDx=0;entryDy=0;" edge="1" target="vKwD8EdCoFHyunoRVP9S-85" parent="1">
          <mxGeometry width="50" height="50" relative="1" as="geometry">
            <mxPoint x="350" y="565" as="sourcePoint" />
            <mxPoint x="380" y="560" as="targetPoint" />
          </mxGeometry>
        </mxCell>
        <mxCell id="vKwD8EdCoFHyunoRVP9S-89" value="day" style="ellipse;whiteSpace=wrap;html=1;" vertex="1" parent="1">
          <mxGeometry x="300" y="545" width="60" height="40" as="geometry" />
        </mxCell>
        <mxCell id="vKwD8EdCoFHyunoRVP9S-90" value="start_t" style="ellipse;whiteSpace=wrap;html=1;" vertex="1" parent="1">
          <mxGeometry x="520" y="545" width="60" height="40" as="geometry" />
        </mxCell>
        <mxCell id="vKwD8EdCoFHyunoRVP9S-91" value="" style="endArrow=none;html=1;" edge="1" source="vKwD8EdCoFHyunoRVP9S-85" parent="1">
          <mxGeometry width="50" height="50" relative="1" as="geometry">
            <mxPoint x="487.5" y="615" as="sourcePoint" />
            <mxPoint x="520" y="565" as="targetPoint" />
          </mxGeometry>
        </mxCell>
        <mxCell id="vKwD8EdCoFHyunoRVP9S-92" value="end_t" style="ellipse;whiteSpace=wrap;html=1;" vertex="1" parent="1">
          <mxGeometry x="407.5" y="620" width="60" height="40" as="geometry" />
        </mxCell>
        <mxCell id="vKwD8EdCoFHyunoRVP9S-93" value="" style="endArrow=none;html=1;exitX=0.5;exitY=1;exitDx=0;exitDy=0;entryX=0.5;entryY=0;entryDx=0;entryDy=0;" edge="1" source="vKwD8EdCoFHyunoRVP9S-85" target="vKwD8EdCoFHyunoRVP9S-92" parent="1">
          <mxGeometry width="50" height="50" relative="1" as="geometry">
            <mxPoint x="440" y="590" as="sourcePoint" />
            <mxPoint x="440" y="610" as="targetPoint" />
          </mxGeometry>
        </mxCell>
        <mxCell id="vKwD8EdCoFHyunoRVP9S-97" value="Admin" style="rounded=0;whiteSpace=wrap;html=1;" vertex="1" parent="1">
          <mxGeometry x="1027.5" y="590" width="100" height="30" as="geometry" />
        </mxCell>
        <mxCell id="vKwD8EdCoFHyunoRVP9S-98" value="" style="endArrow=none;html=1;exitX=0.5;exitY=0;exitDx=0;exitDy=0;" edge="1" source="vKwD8EdCoFHyunoRVP9S-97" target="vKwD8EdCoFHyunoRVP9S-99" parent="1">
          <mxGeometry width="50" height="50" relative="1" as="geometry">
            <mxPoint x="1070" y="590" as="sourcePoint" />
            <mxPoint x="1105" y="560" as="targetPoint" />
          </mxGeometry>
        </mxCell>
        <mxCell id="vKwD8EdCoFHyunoRVP9S-99" value="Aid" style="ellipse;whiteSpace=wrap;html=1;" vertex="1" parent="1">
          <mxGeometry x="1040" y="520" width="70" height="40" as="geometry" />
        </mxCell>
        <mxCell id="vKwD8EdCoFHyunoRVP9S-100" value="" style="endArrow=none;html=1;entryX=0;entryY=0.5;entryDx=0;entryDy=0;" edge="1" target="vKwD8EdCoFHyunoRVP9S-97" parent="1">
          <mxGeometry width="50" height="50" relative="1" as="geometry">
            <mxPoint x="990" y="605" as="sourcePoint" />
            <mxPoint x="1020" y="600" as="targetPoint" />
          </mxGeometry>
        </mxCell>
        <mxCell id="vKwD8EdCoFHyunoRVP9S-101" value="Name" style="ellipse;whiteSpace=wrap;html=1;" vertex="1" parent="1">
          <mxGeometry x="940" y="585" width="60" height="40" as="geometry" />
        </mxCell>
        <mxCell id="vKwD8EdCoFHyunoRVP9S-102" value="Status" style="rounded=0;whiteSpace=wrap;html=1;" vertex="1" parent="1">
          <mxGeometry x="1027.5" y="590" width="100" height="30" as="geometry" />
        </mxCell>
        <mxCell id="vKwD8EdCoFHyunoRVP9S-103" value="" style="endArrow=none;html=1;exitX=0.5;exitY=0;exitDx=0;exitDy=0;" edge="1" source="vKwD8EdCoFHyunoRVP9S-102" target="vKwD8EdCoFHyunoRVP9S-104" parent="1">
          <mxGeometry width="50" height="50" relative="1" as="geometry">
            <mxPoint x="1070" y="590" as="sourcePoint" />
            <mxPoint x="1105" y="560" as="targetPoint" />
          </mxGeometry>
        </mxCell>
        <mxCell id="vKwD8EdCoFHyunoRVP9S-104" value="Stat_id" style="ellipse;whiteSpace=wrap;html=1;" vertex="1" parent="1">
          <mxGeometry x="1040" y="520" width="70" height="40" as="geometry" />
        </mxCell>
        <mxCell id="vKwD8EdCoFHyunoRVP9S-105" value="" style="endArrow=none;html=1;entryX=0;entryY=0.5;entryDx=0;entryDy=0;" edge="1" target="vKwD8EdCoFHyunoRVP9S-102" parent="1">
          <mxGeometry width="50" height="50" relative="1" as="geometry">
            <mxPoint x="990" y="605" as="sourcePoint" />
            <mxPoint x="1020" y="600" as="targetPoint" />
          </mxGeometry>
        </mxCell>
        <mxCell id="vKwD8EdCoFHyunoRVP9S-106" value="stat_name" style="ellipse;whiteSpace=wrap;html=1;" vertex="1" parent="1">
          <mxGeometry x="930" y="585" width="70" height="40" as="geometry" />
        </mxCell>
      </root>
    </mxGraphModel>
  </diagram>
</mxfile>
